<?xml version="1.0" encoding="UTF-8" standalone="no"?>
<!-- Created with Inkscape (http://www.inkscape.org/) -->

<svg
   xmlns:dc="http://purl.org/dc/elements/1.1/"
   xmlns:cc="http://creativecommons.org/ns#"
   xmlns:rdf="http://www.w3.org/1999/02/22-rdf-syntax-ns#"
   xmlns:svg="http://www.w3.org/2000/svg"
   xmlns="http://www.w3.org/2000/svg"
   xmlns:sodipodi="http://sodipodi.sourceforge.net/DTD/sodipodi-0.dtd"
   xmlns:inkscape="http://www.inkscape.org/namespaces/inkscape"
   width="500"
   height="850"
   id="svg2"
   version="1.1"
   inkscape:version="0.48.5 r10040"
   sodipodi:docname="Novo documento 1">
  <defs
     id="defs4" />
  <sodipodi:namedview
     id="base"
     pagecolor="#ffffff"
     bordercolor="#666666"
     borderopacity="1.0"
     inkscape:pageopacity="0.0"
     inkscape:pageshadow="2"
     inkscape:zoom="0.35"
     inkscape:cx="776.62725"
     inkscape:cy="481.24867"
     inkscape:document-units="px"
     inkscape:current-layer="layer1"
     showgrid="false"
     inkscape:window-width="1366"
     inkscape:window-height="721"
     inkscape:window-x="0"
     inkscape:window-y="23"
     inkscape:window-maximized="1" />
  <metadata
     id="metadata7">
    <rdf:RDF>
      <cc:Work
         rdf:about="">
        <dc:format>image/svg+xml</dc:format>
        <dc:type
           rdf:resource="http://purl.org/dc/dcmitype/StillImage" />
        <dc:title></dc:title>
      </cc:Work>
    </rdf:RDF>
  </metadata>
  <g
     inkscape:label="Camada 1"
     inkscape:groupmode="layer"
     id="layer1"
     transform="translate(0,-202.36218)">
    <path
       style="fill:#010101"
       d="m 244.34459,1043.0127 c 0.52893,-0.9138 3.17917,-4.9515 5.88943,-8.9726 63.40453,-94.07052 70.01089,-201.36986 17.32243,-281.34728 -12.63617,-19.1808 -22.09872,-25.97526 -42.51849,-30.52975 -14.02257,-3.12766 -42.73188,-1.84271 -73.88311,3.30679 -32.935,5.44437 -40.08731,6.04838 -49.32306,4.16538 -26.935514,-5.49167 -40.395684,-27.96697 -40.401504,-67.46106 l -9.9e-4,-12.29585 -7.01525,0 c -8.45134,0 -12.15623,-2.28636 -14.31772,-8.83574 -3.24014,-9.81774 2.19794,-29.59863 10.62012,-38.63043 3.58643,-3.84601 3.52262,-4.28031 -1.82071,-12.39377 -7.80431,-11.85023 -9.37152,-25.80766 -3.49497,-31.12586 1.39117,-1.259 5.11808,-2.57458 8.282,-2.92354 13.57401,-1.49711 14.90136,-3.52484 7.19606,-10.99309 -2.49606,-2.41929 -6.18661,-8.06976 -8.20119,-12.55659 -6.53623,-14.55737 -5.65968,-27.2812 2.41191,-35.01058 2.3902,-2.28888 9.72942,-6.98223 16.30935,-10.42969 15.192154,-7.95969 21.033594,-12.00432 28.967994,-20.05748 9.54514,-9.68802 13.18549,-18.08148 13.0094,-29.99539 -0.0789,-5.33619 -0.71868,-12.09488 -1.42182,-15.01929 -2.17768,-9.05741 -1.56002,-28.87008 1.27973,-41.04895 6.21117,-26.63803 22.97356,-55.83452 46.52908,-81.04369 15.96149,-17.08203 19.16131,-20.23413 30.91541,-30.45458 22.14775,-19.25792 41.09194,-31.44814 65.28348,-42.00867 25.67825,-11.20951 55.13347,-16.05288 70.48534,-11.58998 6.38165,1.85521 7.54204,2.63233 6.71681,4.49827 -17.4537,39.4652 -17.81147,96.47685 -1.02351,163.09849 4.82579,19.15082 18.05011,60.42721 20.44227,63.80542 0.5177,0.7311 1.69353,3.72198 2.61293,6.6464 3.43501,10.92583 19.64385,47.42113 32.76606,73.77502 21.11163,42.39909 40.63063,76.64423 63.86047,112.03979 7.64907,11.65509 14.271,22.13847 14.71538,23.29641 0.44425,1.15792 -3.93745,-1.22898 -9.7371,-5.30426 -5.79978,-4.07528 -12.63866,-8.83483 -15.19752,-10.57678 -23.4796,-15.98383 -66.8609,-49.82806 -97.70207,-76.22306 -18.06036,-15.45673 -63.28332,-59.52787 -75.20214,-73.2868 -34.83344,-40.21119 -57.91839,-76.12695 -71.20792,-110.78589 -3.21898,-8.39502 -3.86593,-9.3251 -4.24021,-6.09581 -0.24292,2.09588 0.58349,11.04014 1.83648,19.87613 5.42581,38.26248 20.705,73.92252 45.50927,106.21379 12.71855,16.55759 16.79386,21.01914 41.50457,45.43815 44.45458,43.92984 72.62598,80.40186 92.40758,119.63516 27.70296,54.94388 35.43844,101.74215 25.8748,156.53648 -7.14234,40.92188 -8.11166,45.27452 -14.06816,63.16866 -7.58433,22.78492 -23.66328,54.50781 -34.33157,67.7346 -12.94716,16.05219 -17.70838,21.3996 -28.46275,31.96704 -19.07857,18.74688 -44.64817,37.01718 -68.9761,49.28558 -8.84634,4.4612 -11.74179,5.1734 -10.19965,2.5089 z"
       id="path2996"
       inkscape:connector-curvature="0" />
  </g>
</svg>
